# xmcd CD database file
#
# Track frame offsets:
#	150
#	24167
#	46087
#	73359
#	88411
#	122877
#	155274
#	188249
#	213479
#	241687
#	260997
#	282163
#
# Disc length: 3986 seconds
#
# Revision: 0
# Processed by: cddbd v1.5.2PL0 Copyright (c) Steve Scherf et al.
# Submitted via: CDex 1.51
#
DISCID=ae0f900c
DTITLE=吉田次郎 - a pastel shade
DYEAR=2015
DGENRE=Jazz
TTITLE0=A PASTEL SHADE
TTITLE1=REMINISCENCE OF AVENUE J
TTITLE2=MY BEATING HEART
TTITLE3=HEAVEN IS THE PLACE YOU CAN GO
TTITLE4=CHOICE OF WORDS
TTITLE5=SOFTLY, AS IN A MORNING SUNRISE
TTITLE6=SNOW DANCE
TTITLE7=MY RIGHT SIDE
TTITLE8=VELAS IQADAS
TTITLE9=SHADOWLINE
TTITLE10=THE LAST GOOD DAY
TTITLE11=YOU MUST BELIEVE IN SPRING
EXTD=YEAR: 2015
EXTT0=
EXTT1=
EXTT2=
EXTT3=
EXTT4=
EXTT5=
EXTT6=
EXTT7=
EXTT8=
EXTT9=
EXTT10=
EXTT11=
PLAYORDER=
